# xmcd
#
# Track frame offsets: 
#        150
#        4152
#        26353
#        46570
#        69642
#        90759
#        105638
#        126424
#        143253
#        167062
#        185915
#        199329
#        216609
#        238154
#        258784
#
# Disc length: 3758 seconds
#
# Revision: 3
# Processed by: cddbd v1.5.2PL0 Copyright (c) Steve Scherf et al.
# Submitted via: ExactAudioCopy v0.99pb5
#
DISCID=cc0eac0f
DTITLE=Various Artist - Hip Hop Independants Day, Volume 1
DYEAR=1900
DGENRE=Hip-Hop
TTITLE0=Bobbito - Intro- Declaration of Hip-Hop independants
TTITLE1=Polyrhythm Addicts feat. Shabaam Sahdeeq, Mr.Complex and Apani B
TTITLE1=Fly Emcee - Not Your Ordinary
TTITLE2=Wizdom Life, Matt Fingatip and Shawn J.Period - Fruits of Labour
TTITLE3=Shabaam Sahdeeq feat. Black Sun of Shadows in the Darc - Any M
TTITLE3=inute Now
TTITLE4=Night Breed - I Got Your Back
TTITLE5=Mike Zoot - Live and Stink
TTITLE6=Breez Evahflowin' - Forsaken
TTITLE7=Apani B.Fly Emcee - The Woman in Me
TTITLE8=L-Fudge - A Conversation With Hip-Hop
TTITLE9=Jigmastas feat. Joe Max from Basement Khemist - Comments: To t
TTITLE9=he Sure Shot
TTITLE10=Duodie - Maintain
TTITLE11=Capital A - All Day
TTITLE12=Natural Elements - Tri-Boro
TTITLE13=Kid Thun - I Wonder (Life)
TTITLE14=The Raidermen feat.  Mr. Voodoo and L- Swift of Natural Element
TTITLE14=s, Sean Prince, Lace Da Booms, Mike Zoot - Strategy
EXTD=
EXTT0=
EXTT1=
EXTT2=
EXTT3=
EXTT4=
EXTT5=
EXTT6=
EXTT7=
EXTT8=
EXTT9=
EXTT10=
EXTT11=
EXTT12=
EXTT13=
EXTT14=
PLAYORDER=
